<?xml version="1.0" encoding="utf-8" standalone="no"?>
<!DOCTYPE svg PUBLIC "-//W3C//DTD SVG 1.1//EN"
  "http://www.w3.org/Graphics/SVG/1.1/DTD/svg11.dtd">
<svg xmlns:xlink="http://www.w3.org/1999/xlink" width="510.652983pt" height="344.398438pt" viewBox="0 0 510.652983 344.398438" xmlns="http://www.w3.org/2000/svg" version="1.1">
 <metadata>
  <rdf:RDF xmlns:dc="http://purl.org/dc/elements/1.1/" xmlns:cc="http://creativecommons.org/ns#" xmlns:rdf="http://www.w3.org/1999/02/22-rdf-syntax-ns#">
   <cc:Work>
    <dc:type rdf:resource="http://purl.org/dc/dcmitype/StillImage"/>
    <dc:date>2025-07-23T09:57:55.457056</dc:date>
    <dc:format>image/svg+xml</dc:format>
    <dc:creator>
     <cc:Agent>
      <dc:title>Matplotlib v3.10.3, https://matplotlib.org/</dc:title>
     </cc:Agent>
    </dc:creator>
   </cc:Work>
  </rdf:RDF>
 </metadata>
 <defs>
  <style type="text/css">*{stroke-linejoin: round; stroke-linecap: butt}</style>
 </defs>
 <g id="figure_1">
  <g id="patch_1">
   <path d="M 0 344.398438 
L 510.652983 344.398438 
L 510.652983 0 
L 0 0 
z
" style="fill: #ffffff"/>
  </g>
  <g id="axes_1">
   <g id="patch_2">
    <path d="M 54.750938 300.591563 
L 501.150937 300.591563 
L 501.150937 23.391562 
L 54.750938 23.391562 
z
" style="fill: #ffffff"/>
   </g>
   <g id="PathCollection_1">
    <defs>
     <path id="m18b575eceb" d="M 0 3.872983 
C 1.027127 3.872983 2.012324 3.464901 2.738613 2.738613 
C 3.464901 2.012324 3.872983 1.027127 3.872983 0 
C 3.872983 -1.027127 3.464901 -2.012324 2.738613 -2.738613 
C 2.012324 -3.464901 1.027127 -3.872983 0 -3.872983 
C -1.027127 -3.872983 -2.012324 -3.464901 -2.738613 -2.738613 
C -3.464901 -2.012324 -3.872983 -1.027127 -3.872983 0 
C -3.872983 1.027127 -3.464901 2.012324 -2.738613 2.738613 
C -2.012324 3.464901 -1.027127 3.872983 0 3.872983 
z
" style="stroke: #1f77b4"/>
    </defs>
    <g clip-path="url(#p08c979f265)">
     <use xlink:href="#m18b575eceb" x="379.15559" y="163.519189" style="fill: #1f77b4; stroke: #1f77b4"/>
     <use xlink:href="#m18b575eceb" x="157.013227" y="264.217927" style="fill: #1f77b4; stroke: #1f77b4"/>
     <use xlink:href="#m18b575eceb" x="125.873295" y="231.251815" style="fill: #1f77b4; stroke: #1f77b4"/>
     <use xlink:href="#m18b575eceb" x="132.927007" y="241.217351" style="fill: #1f77b4; stroke: #1f77b4"/>
     <use xlink:href="#m18b575eceb" x="94.050669" y="144.490836" style="fill: #1f77b4; stroke: #1f77b4"/>
     <use xlink:href="#m18b575eceb" x="261.203449" y="91.694421" style="fill: #1f77b4; stroke: #1f77b4"/>
     <use xlink:href="#m18b575eceb" x="254.39903" y="94.520961" style="fill: #1f77b4; stroke: #1f77b4"/>
     <use xlink:href="#m18b575eceb" x="422.095461" y="70.448759" style="fill: #1f77b4; stroke: #1f77b4"/>
     <use xlink:href="#m18b575eceb" x="86.099025" y="127.588509" style="fill: #1f77b4; stroke: #1f77b4"/>
     <use xlink:href="#m18b575eceb" x="226.351012" y="102.073302" style="fill: #1f77b4; stroke: #1f77b4"/>
     <use xlink:href="#m18b575eceb" x="151.599044" y="254.620999" style="fill: #1f77b4; stroke: #1f77b4"/>
     <use xlink:href="#m18b575eceb" x="472.654305" y="159.012725" style="fill: #1f77b4; stroke: #1f77b4"/>
     <use xlink:href="#m18b575eceb" x="290.565573" y="155.010696" style="fill: #1f77b4; stroke: #1f77b4"/>
     <use xlink:href="#m18b575eceb" x="196.458854" y="178.308742" style="fill: #1f77b4; stroke: #1f77b4"/>
     <use xlink:href="#m18b575eceb" x="250.890494" y="90.052646" style="fill: #1f77b4; stroke: #1f77b4"/>
     <use xlink:href="#m18b575eceb" x="107.995309" y="167.912536" style="fill: #1f77b4; stroke: #1f77b4"/>
     <use xlink:href="#m18b575eceb" x="286.067625" y="142.174077" style="fill: #1f77b4; stroke: #1f77b4"/>
     <use xlink:href="#m18b575eceb" x="401.889872" y="88.447503" style="fill: #1f77b4; stroke: #1f77b4"/>
     <use xlink:href="#m18b575eceb" x="144.644246" y="248.681657" style="fill: #1f77b4; stroke: #1f77b4"/>
     <use xlink:href="#m18b575eceb" x="479.031344" y="167.647822" style="fill: #1f77b4; stroke: #1f77b4"/>
     <use xlink:href="#m18b575eceb" x="480.860028" y="162.879269" style="fill: #1f77b4; stroke: #1f77b4"/>
     <use xlink:href="#m18b575eceb" x="139.138131" y="235.275603" style="fill: #1f77b4; stroke: #1f77b4"/>
     <use xlink:href="#m18b575eceb" x="323.207386" y="228.061106" style="fill: #1f77b4; stroke: #1f77b4"/>
     <use xlink:href="#m18b575eceb" x="222.854958" y="125.376349" style="fill: #1f77b4; stroke: #1f77b4"/>
     <use xlink:href="#m18b575eceb" x="411.816565" y="67.395125" style="fill: #1f77b4; stroke: #1f77b4"/>
     <use xlink:href="#m18b575eceb" x="358.738725" y="209.105006" style="fill: #1f77b4; stroke: #1f77b4"/>
     <use xlink:href="#m18b575eceb" x="322.157268" y="232.023798" style="fill: #1f77b4; stroke: #1f77b4"/>
     <use xlink:href="#m18b575eceb" x="327.797622" y="238.153849" style="fill: #1f77b4; stroke: #1f77b4"/>
     <use xlink:href="#m18b575eceb" x="75.041847" y="105.628773" style="fill: #1f77b4; stroke: #1f77b4"/>
     <use xlink:href="#m18b575eceb" x="196.300034" y="173.109182" style="fill: #1f77b4; stroke: #1f77b4"/>
     <use xlink:href="#m18b575eceb" x="471.872541" y="148.952219" style="fill: #1f77b4; stroke: #1f77b4"/>
     <use xlink:href="#m18b575eceb" x="143.969022" y="245.736214" style="fill: #1f77b4; stroke: #1f77b4"/>
    </g>
   </g>
   <g id="PathCollection_2">
    <defs>
     <path id="m69ba36478d" d="M 0 3.872983 
C 1.027127 3.872983 2.012324 3.464901 2.738613 2.738613 
C 3.464901 2.012324 3.872983 1.027127 3.872983 0 
C 3.872983 -1.027127 3.464901 -2.012324 2.738613 -2.738613 
C 2.012324 -3.464901 1.027127 -3.872983 0 -3.872983 
C -1.027127 -3.872983 -2.012324 -3.464901 -2.738613 -2.738613 
C -3.464901 -2.012324 -3.872983 -1.027127 -3.872983 0 
C -3.872983 1.027127 -3.464901 2.012324 -2.738613 2.738613 
C -2.012324 3.464901 -1.027127 3.872983 0 3.872983 
z
" style="stroke: #d62728"/>
    </defs>
    <g clip-path="url(#p08c979f265)">
     <use xlink:href="#m69ba36478d" x="91.071992" y="121.982595" style="fill: #d62728; stroke: #d62728"/>
     <use xlink:href="#m69ba36478d" x="325.956018" y="225.392408" style="fill: #d62728; stroke: #d62728"/>
     <use xlink:href="#m69ba36478d" x="436.51588" y="67.430321" style="fill: #d62728; stroke: #d62728"/>
     <use xlink:href="#m69ba36478d" x="368.929671" y="191.484934" style="fill: #d62728; stroke: #d62728"/>
     <use xlink:href="#m69ba36478d" x="191.128547" y="199.551529" style="fill: #d62728; stroke: #d62728"/>
     <use xlink:href="#m69ba36478d" x="190.737185" y="202.667097" style="fill: #d62728; stroke: #d62728"/>
     <use xlink:href="#m69ba36478d" x="132.937318" y="229.158607" style="fill: #d62728; stroke: #d62728"/>
     <use xlink:href="#m69ba36478d" x="319.488115" y="232.967665" style="fill: #d62728; stroke: #d62728"/>
    </g>
   </g>
   <g id="matplotlib.axis_1">
    <g id="xtick_1">
     <g id="line2d_1">
      <defs>
       <path id="mc83db48b68" d="M 0 0 
L 0 3.5 
" style="stroke: #000000; stroke-width: 0.8"/>
      </defs>
      <g>
       <use xlink:href="#mc83db48b68" x="66.242374" y="300.591563" style="stroke: #000000; stroke-width: 0.8"/>
      </g>
     </g>
     <g id="text_1">
      <text style="font-size: 14px; font-family: 'Arial', sans-serif; text-anchor: middle" x="66.242374" y="317.6125" transform="rotate(-0 66.242374 317.6125)">0.0</text>
     </g>
    </g>
    <g id="xtick_2">
     <g id="line2d_2">
      <g>
       <use xlink:href="#mc83db48b68" x="151.738496" y="300.591563" style="stroke: #000000; stroke-width: 0.8"/>
      </g>
     </g>
     <g id="text_2">
      <text style="font-size: 14px; font-family: 'Arial', sans-serif; text-anchor: middle" x="151.738496" y="317.6125" transform="rotate(-0 151.738496 317.6125)">0.2</text>
     </g>
    </g>
    <g id="xtick_3">
     <g id="line2d_3">
      <g>
       <use xlink:href="#mc83db48b68" x="237.234618" y="300.591563" style="stroke: #000000; stroke-width: 0.8"/>
      </g>
     </g>
     <g id="text_3">
      <text style="font-size: 14px; font-family: 'Arial', sans-serif; text-anchor: middle" x="237.234618" y="317.6125" transform="rotate(-0 237.234618 317.6125)">0.4</text>
     </g>
    </g>
    <g id="xtick_4">
     <g id="line2d_4">
      <g>
       <use xlink:href="#mc83db48b68" x="322.73074" y="300.591563" style="stroke: #000000; stroke-width: 0.8"/>
      </g>
     </g>
     <g id="text_4">
      <text style="font-size: 14px; font-family: 'Arial', sans-serif; text-anchor: middle" x="322.73074" y="317.6125" transform="rotate(-0 322.73074 317.6125)">0.6</text>
     </g>
    </g>
    <g id="xtick_5">
     <g id="line2d_5">
      <g>
       <use xlink:href="#mc83db48b68" x="408.226861" y="300.591563" style="stroke: #000000; stroke-width: 0.8"/>
      </g>
     </g>
     <g id="text_5">
      <text style="font-size: 14px; font-family: 'Arial', sans-serif; text-anchor: middle" x="408.226861" y="317.6125" transform="rotate(-0 408.226861 317.6125)">0.8</text>
     </g>
    </g>
    <g id="xtick_6">
     <g id="line2d_6">
      <g>
       <use xlink:href="#mc83db48b68" x="493.722983" y="300.591563" style="stroke: #000000; stroke-width: 0.8"/>
      </g>
     </g>
     <g id="text_6">
      <text style="font-size: 14px; font-family: 'Arial', sans-serif; text-anchor: middle" x="493.722983" y="317.6125" transform="rotate(-0 493.722983 317.6125)">1.0</text>
     </g>
    </g>
    <g id="text_7">
     <text style="font-size: 14px; font-family: 'Arial', sans-serif; text-anchor: middle" x="277.950938" y="334.415937" transform="rotate(-0 277.950938 334.415937)">x</text>
    </g>
   </g>
   <g id="matplotlib.axis_2">
    <g id="ytick_1">
     <g id="line2d_7">
      <defs>
       <path id="md01f5f9f91" d="M 0 0 
L -3.5 0 
" style="stroke: #000000; stroke-width: 0.8"/>
      </defs>
      <g>
       <use xlink:href="#md01f5f9f91" x="54.750938" y="300.591563" style="stroke: #000000; stroke-width: 0.8"/>
      </g>
     </g>
     <g id="text_8">
      <text style="font-size: 14px; font-family: 'Arial', sans-serif; text-anchor: end" x="47.750938" y="305.602031" transform="rotate(-0 47.750938 305.602031)">−15</text>
     </g>
    </g>
    <g id="ytick_2">
     <g id="line2d_8">
      <g>
       <use xlink:href="#md01f5f9f91" x="54.750938" y="260.991562" style="stroke: #000000; stroke-width: 0.8"/>
      </g>
     </g>
     <g id="text_9">
      <text style="font-size: 14px; font-family: 'Arial', sans-serif; text-anchor: end" x="47.750938" y="266.002031" transform="rotate(-0 47.750938 266.002031)">−10</text>
     </g>
    </g>
    <g id="ytick_3">
     <g id="line2d_9">
      <g>
       <use xlink:href="#md01f5f9f91" x="54.750938" y="221.391562" style="stroke: #000000; stroke-width: 0.8"/>
      </g>
     </g>
     <g id="text_10">
      <text style="font-size: 14px; font-family: 'Arial', sans-serif; text-anchor: end" x="47.750938" y="226.402031" transform="rotate(-0 47.750938 226.402031)">−5</text>
     </g>
    </g>
    <g id="ytick_4">
     <g id="line2d_10">
      <g>
       <use xlink:href="#md01f5f9f91" x="54.750938" y="181.791562" style="stroke: #000000; stroke-width: 0.8"/>
      </g>
     </g>
     <g id="text_11">
      <text style="font-size: 14px; font-family: 'Arial', sans-serif; text-anchor: end" x="47.750938" y="186.802031" transform="rotate(-0 47.750938 186.802031)">0</text>
     </g>
    </g>
    <g id="ytick_5">
     <g id="line2d_11">
      <g>
       <use xlink:href="#md01f5f9f91" x="54.750938" y="142.191563" style="stroke: #000000; stroke-width: 0.8"/>
      </g>
     </g>
     <g id="text_12">
      <text style="font-size: 14px; font-family: 'Arial', sans-serif; text-anchor: end" x="47.750938" y="147.202031" transform="rotate(-0 47.750938 147.202031)">5</text>
     </g>
    </g>
    <g id="ytick_6">
     <g id="line2d_12">
      <g>
       <use xlink:href="#md01f5f9f91" x="54.750938" y="102.591562" style="stroke: #000000; stroke-width: 0.8"/>
      </g>
     </g>
     <g id="text_13">
      <text style="font-size: 14px; font-family: 'Arial', sans-serif; text-anchor: end" x="47.750938" y="107.602031" transform="rotate(-0 47.750938 107.602031)">10</text>
     </g>
    </g>
    <g id="ytick_7">
     <g id="line2d_13">
      <g>
       <use xlink:href="#md01f5f9f91" x="54.750938" y="62.991562" style="stroke: #000000; stroke-width: 0.8"/>
      </g>
     </g>
     <g id="text_14">
      <text style="font-size: 14px; font-family: 'Arial', sans-serif; text-anchor: end" x="47.750938" y="68.002031" transform="rotate(-0 47.750938 68.002031)">15</text>
     </g>
    </g>
    <g id="ytick_8">
     <g id="line2d_14">
      <g>
       <use xlink:href="#md01f5f9f91" x="54.750938" y="23.391562" style="stroke: #000000; stroke-width: 0.8"/>
      </g>
     </g>
     <g id="text_15">
      <text style="font-size: 14px; font-family: 'Arial', sans-serif; text-anchor: end" x="47.750938" y="28.402031" transform="rotate(-0 47.750938 28.402031)">20</text>
     </g>
    </g>
    <g id="text_16">
     <text style="font-size: 14px; font-family: 'Arial', sans-serif; text-anchor: middle" x="17.056875" y="161.991562" transform="rotate(-90 17.056875 161.991562)">y</text>
    </g>
   </g>
   <g id="line2d_15">
    <path d="M 75.041847 120.392364 
L 78.493027 130.345672 
L 81.944207 139.608589 
L 85.192376 147.717715 
L 88.440546 155.256743 
L 91.688715 162.245323 
L 94.936885 168.702812 
L 98.185055 174.648273 
L 101.230214 179.773811 
L 104.275372 184.481053 
L 107.320531 188.785004 
L 110.36569 192.700439 
L 113.410849 196.241909 
L 116.252998 199.22252 
L 119.095146 201.901311 
L 121.937294 204.289578 
L 124.779443 206.398442 
L 127.621591 208.238853 
L 130.463739 209.821591 
L 133.305888 211.15726 
L 136.148036 212.256294 
L 139.138131 213.168372 
L 142.035343 213.824203 
L 145.080502 214.283353 
L 148.125661 214.518368 
L 151.373831 214.535224 
L 154.622 214.324373 
L 158.07318 213.866125 
L 161.524361 213.182269 
L 165.178551 212.229669 
L 169.035753 210.988799 
L 173.095965 209.443891 
L 177.359187 207.583487 
L 182.028431 205.296548 
L 187.103696 202.552911 
L 192.584982 199.334356 
L 198.87831 195.37445 
L 206.389702 190.372816 
L 216.743243 183.185023 
L 237.450324 168.762004 
L 245.773758 163.271121 
L 253.082139 158.715031 
L 259.578479 154.921449 
L 265.668796 151.616272 
L 271.556104 148.676294 
L 277.03739 146.181492 
L 282.518676 143.933768 
L 287.796951 142.012701 
L 292.872216 140.397704 
L 297.947481 139.015169 
L 303.022746 137.868093 
L 307.895 136.989594 
L 312.767255 136.32884 
L 317.639509 135.883929 
L 322.714774 135.646329 
L 327.797622 135.633845 
L 332.865304 135.838741 
L 338.143579 136.273148 
L 343.624865 136.949996 
L 349.309162 137.877911 
L 355.39948 139.104312 
L 361.895819 140.645403 
L 369.2042 142.618113 
L 377.933656 145.219992 
L 394.580525 150.486708 
L 404.325034 153.427967 
L 411.227394 155.291713 
L 417.114701 156.660794 
L 422.392977 157.664235 
L 427.265231 158.362249 
L 431.731464 158.777297 
L 435.994687 158.94501 
L 439.851888 158.881988 
L 443.709089 158.593981 
L 447.36328 158.094708 
L 450.81446 157.404177 
L 454.26564 156.484877 
L 457.51381 155.396258 
L 460.761979 154.077005 
L 464.010149 152.513098 
L 467.258318 150.690221 
L 470.303477 148.73309 
L 473.348636 146.523242 
L 476.393795 144.048176 
L 479.438954 141.295169 
L 480.860028 139.911679 
L 480.860028 139.911679 
" clip-path="url(#p08c979f265)" style="fill: none; stroke: #000000; stroke-width: 1.5; stroke-linecap: square"/>
   </g>
   <g id="patch_3">
    <path d="M 54.750938 300.591563 
L 54.750938 23.391562 
" style="fill: none; stroke: #000000; stroke-width: 0.8; stroke-linejoin: miter; stroke-linecap: square"/>
   </g>
   <g id="patch_4">
    <path d="M 501.150937 300.591563 
L 501.150937 23.391562 
" style="fill: none; stroke: #000000; stroke-width: 0.8; stroke-linejoin: miter; stroke-linecap: square"/>
   </g>
   <g id="patch_5">
    <path d="M 54.750938 300.591563 
L 501.150937 300.591563 
" style="fill: none; stroke: #000000; stroke-width: 0.8; stroke-linejoin: miter; stroke-linecap: square"/>
   </g>
   <g id="patch_6">
    <path d="M 54.750938 23.391562 
L 501.150937 23.391562 
" style="fill: none; stroke: #000000; stroke-width: 0.8; stroke-linejoin: miter; stroke-linecap: square"/>
   </g>
   <g id="text_17">
    <text style="font-size: 14px; font-family: 'Arial', sans-serif; text-anchor: middle" x="277.950938" y="17.391562" transform="rotate(-0 277.950938 17.391562)">Legendre Polynomial Fit (P=5)</text>
   </g>
   <g id="legend_1">
    <g id="PathCollection_3">
     <g>
      <use xlink:href="#m18b575eceb" x="77.550938" y="39.630937" style="fill: #1f77b4; stroke: #1f77b4"/>
     </g>
    </g>
    <g id="text_18">
     <text style="font-size: 12px; font-family: 'Arial', sans-serif; text-anchor: start" x="99.150937" y="42.780937" transform="rotate(-0 99.150937 42.780937)">Train data</text>
    </g>
    <g id="PathCollection_4">
     <g>
      <use xlink:href="#m69ba36478d" x="77.550938" y="56.605312" style="fill: #d62728; stroke: #d62728"/>
     </g>
    </g>
    <g id="text_19">
     <text style="font-size: 12px; font-family: 'Arial', sans-serif; text-anchor: start" x="99.150937" y="59.755312" transform="rotate(-0 99.150937 59.755312)">Test data</text>
    </g>
    <g id="line2d_16">
     <path d="M 65.550938 72.675937 
L 77.550938 72.675937 
L 89.550938 72.675937 
" style="fill: none; stroke: #000000; stroke-width: 1.5; stroke-linecap: square"/>
    </g>
    <g id="text_20">
     <text style="font-size: 12px; font-family: 'Arial', sans-serif; text-anchor: start" x="99.150937" y="76.875937" transform="rotate(-0 99.150937 76.875937)">Legendre Fit (P=5)</text>
    </g>
   </g>
  </g>
 </g>
 <defs>
  <clipPath id="p08c979f265">
   <rect x="54.750938" y="23.391562" width="446.4" height="277.2"/>
  </clipPath>
 </defs>
</svg>
