<?xml version="1.0" encoding="utf-8" standalone="no"?>
<!DOCTYPE svg PUBLIC "-//W3C//DTD SVG 1.1//EN"
  "http://www.w3.org/Graphics/SVG/1.1/DTD/svg11.dtd">
<svg xmlns:xlink="http://www.w3.org/1999/xlink" width="510.652983pt" height="344.398438pt" viewBox="0 0 510.652983 344.398438" xmlns="http://www.w3.org/2000/svg" version="1.1">
 <metadata>
  <rdf:RDF xmlns:dc="http://purl.org/dc/elements/1.1/" xmlns:cc="http://creativecommons.org/ns#" xmlns:rdf="http://www.w3.org/1999/02/22-rdf-syntax-ns#">
   <cc:Work>
    <dc:type rdf:resource="http://purl.org/dc/dcmitype/StillImage"/>
    <dc:date>2025-07-23T09:57:55.745520</dc:date>
    <dc:format>image/svg+xml</dc:format>
    <dc:creator>
     <cc:Agent>
      <dc:title>Matplotlib v3.10.3, https://matplotlib.org/</dc:title>
     </cc:Agent>
    </dc:creator>
   </cc:Work>
  </rdf:RDF>
 </metadata>
 <defs>
  <style type="text/css">*{stroke-linejoin: round; stroke-linecap: butt}</style>
 </defs>
 <g id="figure_1">
  <g id="patch_1">
   <path d="M 0 344.398438 
L 510.652983 344.398438 
L 510.652983 0 
L 0 0 
z
" style="fill: #ffffff"/>
  </g>
  <g id="axes_1">
   <g id="patch_2">
    <path d="M 54.750938 300.591563 
L 501.150937 300.591563 
L 501.150937 23.391562 
L 54.750938 23.391562 
z
" style="fill: #ffffff"/>
   </g>
   <g id="PathCollection_1">
    <defs>
     <path id="m74ca492c73" d="M 0 3.872983 
C 1.027127 3.872983 2.012324 3.464901 2.738613 2.738613 
C 3.464901 2.012324 3.872983 1.027127 3.872983 0 
C 3.872983 -1.027127 3.464901 -2.012324 2.738613 -2.738613 
C 2.012324 -3.464901 1.027127 -3.872983 0 -3.872983 
C -1.027127 -3.872983 -2.012324 -3.464901 -2.738613 -2.738613 
C -3.464901 -2.012324 -3.872983 -1.027127 -3.872983 0 
C -3.872983 1.027127 -3.464901 2.012324 -2.738613 2.738613 
C -2.012324 3.464901 -1.027127 3.872983 0 3.872983 
z
" style="stroke: #1f77b4"/>
    </defs>
    <g clip-path="url(#p3d4a9df1c2)">
     <use xlink:href="#m74ca492c73" x="379.15559" y="163.519189" style="fill: #1f77b4; stroke: #1f77b4"/>
     <use xlink:href="#m74ca492c73" x="157.013227" y="264.217927" style="fill: #1f77b4; stroke: #1f77b4"/>
     <use xlink:href="#m74ca492c73" x="125.873295" y="231.251815" style="fill: #1f77b4; stroke: #1f77b4"/>
     <use xlink:href="#m74ca492c73" x="132.927007" y="241.217351" style="fill: #1f77b4; stroke: #1f77b4"/>
     <use xlink:href="#m74ca492c73" x="94.050669" y="144.490836" style="fill: #1f77b4; stroke: #1f77b4"/>
     <use xlink:href="#m74ca492c73" x="261.203449" y="91.694421" style="fill: #1f77b4; stroke: #1f77b4"/>
     <use xlink:href="#m74ca492c73" x="254.39903" y="94.520961" style="fill: #1f77b4; stroke: #1f77b4"/>
     <use xlink:href="#m74ca492c73" x="422.095461" y="70.448759" style="fill: #1f77b4; stroke: #1f77b4"/>
     <use xlink:href="#m74ca492c73" x="86.099025" y="127.588509" style="fill: #1f77b4; stroke: #1f77b4"/>
     <use xlink:href="#m74ca492c73" x="226.351012" y="102.073302" style="fill: #1f77b4; stroke: #1f77b4"/>
     <use xlink:href="#m74ca492c73" x="151.599044" y="254.620999" style="fill: #1f77b4; stroke: #1f77b4"/>
     <use xlink:href="#m74ca492c73" x="472.654305" y="159.012725" style="fill: #1f77b4; stroke: #1f77b4"/>
     <use xlink:href="#m74ca492c73" x="290.565573" y="155.010696" style="fill: #1f77b4; stroke: #1f77b4"/>
     <use xlink:href="#m74ca492c73" x="196.458854" y="178.308742" style="fill: #1f77b4; stroke: #1f77b4"/>
     <use xlink:href="#m74ca492c73" x="250.890494" y="90.052646" style="fill: #1f77b4; stroke: #1f77b4"/>
     <use xlink:href="#m74ca492c73" x="107.995309" y="167.912536" style="fill: #1f77b4; stroke: #1f77b4"/>
     <use xlink:href="#m74ca492c73" x="286.067625" y="142.174077" style="fill: #1f77b4; stroke: #1f77b4"/>
     <use xlink:href="#m74ca492c73" x="401.889872" y="88.447503" style="fill: #1f77b4; stroke: #1f77b4"/>
     <use xlink:href="#m74ca492c73" x="144.644246" y="248.681657" style="fill: #1f77b4; stroke: #1f77b4"/>
     <use xlink:href="#m74ca492c73" x="479.031344" y="167.647822" style="fill: #1f77b4; stroke: #1f77b4"/>
     <use xlink:href="#m74ca492c73" x="480.860028" y="162.879269" style="fill: #1f77b4; stroke: #1f77b4"/>
     <use xlink:href="#m74ca492c73" x="139.138131" y="235.275603" style="fill: #1f77b4; stroke: #1f77b4"/>
     <use xlink:href="#m74ca492c73" x="323.207386" y="228.061106" style="fill: #1f77b4; stroke: #1f77b4"/>
     <use xlink:href="#m74ca492c73" x="222.854958" y="125.376349" style="fill: #1f77b4; stroke: #1f77b4"/>
     <use xlink:href="#m74ca492c73" x="411.816565" y="67.395125" style="fill: #1f77b4; stroke: #1f77b4"/>
     <use xlink:href="#m74ca492c73" x="358.738725" y="209.105006" style="fill: #1f77b4; stroke: #1f77b4"/>
     <use xlink:href="#m74ca492c73" x="322.157268" y="232.023798" style="fill: #1f77b4; stroke: #1f77b4"/>
     <use xlink:href="#m74ca492c73" x="327.797622" y="238.153849" style="fill: #1f77b4; stroke: #1f77b4"/>
     <use xlink:href="#m74ca492c73" x="75.041847" y="105.628773" style="fill: #1f77b4; stroke: #1f77b4"/>
     <use xlink:href="#m74ca492c73" x="196.300034" y="173.109182" style="fill: #1f77b4; stroke: #1f77b4"/>
     <use xlink:href="#m74ca492c73" x="471.872541" y="148.952219" style="fill: #1f77b4; stroke: #1f77b4"/>
     <use xlink:href="#m74ca492c73" x="143.969022" y="245.736214" style="fill: #1f77b4; stroke: #1f77b4"/>
    </g>
   </g>
   <g id="PathCollection_2">
    <defs>
     <path id="m7491e7cac5" d="M 0 3.872983 
C 1.027127 3.872983 2.012324 3.464901 2.738613 2.738613 
C 3.464901 2.012324 3.872983 1.027127 3.872983 0 
C 3.872983 -1.027127 3.464901 -2.012324 2.738613 -2.738613 
C 2.012324 -3.464901 1.027127 -3.872983 0 -3.872983 
C -1.027127 -3.872983 -2.012324 -3.464901 -2.738613 -2.738613 
C -3.464901 -2.012324 -3.872983 -1.027127 -3.872983 0 
C -3.872983 1.027127 -3.464901 2.012324 -2.738613 2.738613 
C -2.012324 3.464901 -1.027127 3.872983 0 3.872983 
z
" style="stroke: #d62728"/>
    </defs>
    <g clip-path="url(#p3d4a9df1c2)">
     <use xlink:href="#m7491e7cac5" x="91.071992" y="121.982595" style="fill: #d62728; stroke: #d62728"/>
     <use xlink:href="#m7491e7cac5" x="325.956018" y="225.392408" style="fill: #d62728; stroke: #d62728"/>
     <use xlink:href="#m7491e7cac5" x="436.51588" y="67.430321" style="fill: #d62728; stroke: #d62728"/>
     <use xlink:href="#m7491e7cac5" x="368.929671" y="191.484934" style="fill: #d62728; stroke: #d62728"/>
     <use xlink:href="#m7491e7cac5" x="191.128547" y="199.551529" style="fill: #d62728; stroke: #d62728"/>
     <use xlink:href="#m7491e7cac5" x="190.737185" y="202.667097" style="fill: #d62728; stroke: #d62728"/>
     <use xlink:href="#m7491e7cac5" x="132.937318" y="229.158607" style="fill: #d62728; stroke: #d62728"/>
     <use xlink:href="#m7491e7cac5" x="319.488115" y="232.967665" style="fill: #d62728; stroke: #d62728"/>
    </g>
   </g>
   <g id="matplotlib.axis_1">
    <g id="xtick_1">
     <g id="line2d_1">
      <defs>
       <path id="m57163e6192" d="M 0 0 
L 0 3.5 
" style="stroke: #000000; stroke-width: 0.8"/>
      </defs>
      <g>
       <use xlink:href="#m57163e6192" x="66.242374" y="300.591563" style="stroke: #000000; stroke-width: 0.8"/>
      </g>
     </g>
     <g id="text_1">
      <text style="font-size: 14px; font-family: 'Arial', sans-serif; text-anchor: middle" x="66.242374" y="317.6125" transform="rotate(-0 66.242374 317.6125)">0.0</text>
     </g>
    </g>
    <g id="xtick_2">
     <g id="line2d_2">
      <g>
       <use xlink:href="#m57163e6192" x="151.738496" y="300.591563" style="stroke: #000000; stroke-width: 0.8"/>
      </g>
     </g>
     <g id="text_2">
      <text style="font-size: 14px; font-family: 'Arial', sans-serif; text-anchor: middle" x="151.738496" y="317.6125" transform="rotate(-0 151.738496 317.6125)">0.2</text>
     </g>
    </g>
    <g id="xtick_3">
     <g id="line2d_3">
      <g>
       <use xlink:href="#m57163e6192" x="237.234618" y="300.591563" style="stroke: #000000; stroke-width: 0.8"/>
      </g>
     </g>
     <g id="text_3">
      <text style="font-size: 14px; font-family: 'Arial', sans-serif; text-anchor: middle" x="237.234618" y="317.6125" transform="rotate(-0 237.234618 317.6125)">0.4</text>
     </g>
    </g>
    <g id="xtick_4">
     <g id="line2d_4">
      <g>
       <use xlink:href="#m57163e6192" x="322.73074" y="300.591563" style="stroke: #000000; stroke-width: 0.8"/>
      </g>
     </g>
     <g id="text_4">
      <text style="font-size: 14px; font-family: 'Arial', sans-serif; text-anchor: middle" x="322.73074" y="317.6125" transform="rotate(-0 322.73074 317.6125)">0.6</text>
     </g>
    </g>
    <g id="xtick_5">
     <g id="line2d_5">
      <g>
       <use xlink:href="#m57163e6192" x="408.226861" y="300.591563" style="stroke: #000000; stroke-width: 0.8"/>
      </g>
     </g>
     <g id="text_5">
      <text style="font-size: 14px; font-family: 'Arial', sans-serif; text-anchor: middle" x="408.226861" y="317.6125" transform="rotate(-0 408.226861 317.6125)">0.8</text>
     </g>
    </g>
    <g id="xtick_6">
     <g id="line2d_6">
      <g>
       <use xlink:href="#m57163e6192" x="493.722983" y="300.591563" style="stroke: #000000; stroke-width: 0.8"/>
      </g>
     </g>
     <g id="text_6">
      <text style="font-size: 14px; font-family: 'Arial', sans-serif; text-anchor: middle" x="493.722983" y="317.6125" transform="rotate(-0 493.722983 317.6125)">1.0</text>
     </g>
    </g>
    <g id="text_7">
     <text style="font-size: 14px; font-family: 'Arial', sans-serif; text-anchor: middle" x="277.950938" y="334.415937" transform="rotate(-0 277.950938 334.415937)">x</text>
    </g>
   </g>
   <g id="matplotlib.axis_2">
    <g id="ytick_1">
     <g id="line2d_7">
      <defs>
       <path id="mc3af7393a6" d="M 0 0 
L -3.5 0 
" style="stroke: #000000; stroke-width: 0.8"/>
      </defs>
      <g>
       <use xlink:href="#mc3af7393a6" x="54.750938" y="300.591563" style="stroke: #000000; stroke-width: 0.8"/>
      </g>
     </g>
     <g id="text_8">
      <text style="font-size: 14px; font-family: 'Arial', sans-serif; text-anchor: end" x="47.750938" y="305.602031" transform="rotate(-0 47.750938 305.602031)">−15</text>
     </g>
    </g>
    <g id="ytick_2">
     <g id="line2d_8">
      <g>
       <use xlink:href="#mc3af7393a6" x="54.750938" y="260.991562" style="stroke: #000000; stroke-width: 0.8"/>
      </g>
     </g>
     <g id="text_9">
      <text style="font-size: 14px; font-family: 'Arial', sans-serif; text-anchor: end" x="47.750938" y="266.002031" transform="rotate(-0 47.750938 266.002031)">−10</text>
     </g>
    </g>
    <g id="ytick_3">
     <g id="line2d_9">
      <g>
       <use xlink:href="#mc3af7393a6" x="54.750938" y="221.391562" style="stroke: #000000; stroke-width: 0.8"/>
      </g>
     </g>
     <g id="text_10">
      <text style="font-size: 14px; font-family: 'Arial', sans-serif; text-anchor: end" x="47.750938" y="226.402031" transform="rotate(-0 47.750938 226.402031)">−5</text>
     </g>
    </g>
    <g id="ytick_4">
     <g id="line2d_10">
      <g>
       <use xlink:href="#mc3af7393a6" x="54.750938" y="181.791562" style="stroke: #000000; stroke-width: 0.8"/>
      </g>
     </g>
     <g id="text_11">
      <text style="font-size: 14px; font-family: 'Arial', sans-serif; text-anchor: end" x="47.750938" y="186.802031" transform="rotate(-0 47.750938 186.802031)">0</text>
     </g>
    </g>
    <g id="ytick_5">
     <g id="line2d_11">
      <g>
       <use xlink:href="#mc3af7393a6" x="54.750938" y="142.191563" style="stroke: #000000; stroke-width: 0.8"/>
      </g>
     </g>
     <g id="text_12">
      <text style="font-size: 14px; font-family: 'Arial', sans-serif; text-anchor: end" x="47.750938" y="147.202031" transform="rotate(-0 47.750938 147.202031)">5</text>
     </g>
    </g>
    <g id="ytick_6">
     <g id="line2d_12">
      <g>
       <use xlink:href="#mc3af7393a6" x="54.750938" y="102.591562" style="stroke: #000000; stroke-width: 0.8"/>
      </g>
     </g>
     <g id="text_13">
      <text style="font-size: 14px; font-family: 'Arial', sans-serif; text-anchor: end" x="47.750938" y="107.602031" transform="rotate(-0 47.750938 107.602031)">10</text>
     </g>
    </g>
    <g id="ytick_7">
     <g id="line2d_13">
      <g>
       <use xlink:href="#mc3af7393a6" x="54.750938" y="62.991562" style="stroke: #000000; stroke-width: 0.8"/>
      </g>
     </g>
     <g id="text_14">
      <text style="font-size: 14px; font-family: 'Arial', sans-serif; text-anchor: end" x="47.750938" y="68.002031" transform="rotate(-0 47.750938 68.002031)">15</text>
     </g>
    </g>
    <g id="ytick_8">
     <g id="line2d_14">
      <g>
       <use xlink:href="#mc3af7393a6" x="54.750938" y="23.391562" style="stroke: #000000; stroke-width: 0.8"/>
      </g>
     </g>
     <g id="text_15">
      <text style="font-size: 14px; font-family: 'Arial', sans-serif; text-anchor: end" x="47.750938" y="28.402031" transform="rotate(-0 47.750938 28.402031)">20</text>
     </g>
    </g>
    <g id="text_16">
     <text style="font-size: 14px; font-family: 'Arial', sans-serif; text-anchor: middle" x="17.056875" y="161.991562" transform="rotate(-90 17.056875 161.991562)">y</text>
    </g>
   </g>
   <g id="line2d_15">
    <path d="M 75.041847 105.628773 
L 75.244857 153.942856 
L 75.447868 157.815589 
L 75.650878 159.289789 
L 75.853889 156.725553 
L 76.25991 160.229117 
L 76.462921 159.741665 
L 76.665931 158.008216 
L 76.868942 157.424037 
L 77.477974 159.75696 
L 78.087006 157.012903 
L 78.290016 157.14163 
L 78.696037 158.357076 
L 78.899048 158.434155 
L 79.102059 157.919959 
L 79.71109 155.661646 
L 79.914101 155.54228 
L 80.523133 156.078572 
L 80.726143 155.875898 
L 81.132164 154.678985 
L 81.741196 152.864843 
L 82.756249 151.299217 
L 83.974313 147.489501 
L 84.380334 145.537879 
L 84.786355 142.025692 
L 86.099025 127.588509 
L 86.207429 127.452848 
L 86.41044 127.988924 
L 86.613451 129.525722 
L 87.019472 134.965191 
L 87.831514 147.483728 
L 88.237535 150.608258 
L 88.440546 151.092796 
L 88.643557 150.988136 
L 89.049578 149.75984 
L 89.455599 148.554021 
L 89.65861 148.378392 
L 89.86162 148.60029 
L 90.267641 150.169969 
L 91.079684 154.613269 
L 91.282694 155.147076 
L 91.485705 155.235205 
L 91.688715 154.847298 
L 92.094737 152.775554 
L 93.3128 144.229489 
L 93.515811 143.726731 
L 93.718821 143.66709 
L 94.050669 144.490836 
L 94.327853 145.923141 
L 95.139896 152.064519 
L 95.951938 157.601514 
L 96.56097 160.30597 
L 97.373012 162.775018 
L 98.997097 166.879523 
L 99.606129 167.921758 
L 100.621182 169.096921 
L 101.636235 170.367333 
L 103.46333 172.962676 
L 104.072362 173.387654 
L 104.478383 173.424511 
L 104.884404 173.219773 
L 105.290425 172.748055 
L 105.899457 171.556464 
L 107.320531 168.164582 
L 107.726553 167.814279 
L 107.995309 167.912536 
L 108.335584 168.478366 
L 108.741606 169.830769 
L 109.350637 173.105118 
L 111.380743 186.150835 
L 111.989775 188.15042 
L 112.598807 189.172039 
L 113.81687 190.602794 
L 114.425902 191.996169 
L 115.237945 194.718102 
L 116.659019 199.628076 
L 117.471061 201.469413 
L 119.501167 205.253629 
L 120.51622 208.122192 
L 122.140305 213.512534 
L 123.155358 217.66889 
L 124.170411 222.965243 
L 125.388474 229.44247 
L 125.997506 231.59439 
L 126.403527 232.321617 
L 126.606538 232.451888 
L 126.809549 232.428687 
L 127.21557 231.960299 
L 127.824602 230.478145 
L 128.839655 227.769467 
L 129.245676 227.2971 
L 129.448686 227.286267 
L 129.651697 227.443033 
L 130.057718 228.274395 
L 130.463739 229.756536 
L 131.275782 234.06142 
L 132.290835 239.426215 
L 132.696856 240.766849 
L 133.102877 241.399485 
L 133.305888 241.433361 
L 133.508898 241.282471 
L 133.914919 240.472974 
L 134.523951 238.294421 
L 135.945025 232.608392 
L 136.351047 231.728265 
L 136.757068 231.364686 
L 136.960078 231.372398 
L 137.3661 231.719605 
L 137.975131 232.832049 
L 139.193195 235.36416 
L 139.802227 236.083434 
L 140.411259 236.409322 
L 141.223301 236.778622 
L 141.629322 237.21471 
L 142.035343 237.959731 
L 142.644375 239.759307 
L 143.456418 243.253676 
L 144.674481 248.794195 
L 145.283513 250.539361 
L 145.689534 251.067772 
L 145.892545 251.131065 
L 146.095555 251.065703 
L 146.501576 250.589557 
L 147.110608 249.254534 
L 148.125661 246.815113 
L 148.531682 246.272335 
L 148.937704 246.168032 
L 149.343725 246.554387 
L 149.749746 247.420376 
L 150.358778 249.453216 
L 152.388884 257.257139 
L 152.997916 258.57571 
L 153.606947 259.376786 
L 155.028021 260.868713 
L 155.840064 262.295457 
L 156.652106 263.807174 
L 157.058127 264.247827 
L 157.261138 264.310171 
L 157.464149 264.236215 
L 157.667159 264.004134 
L 158.07318 262.98955 
L 158.479202 261.147058 
L 159.088233 256.735398 
L 159.900276 248.130743 
L 161.930382 223.989629 
L 162.539414 219.617923 
L 162.945435 217.925537 
L 163.351456 217.176984 
L 163.554467 217.117753 
L 163.757477 217.237231 
L 164.163498 217.892909 
L 165.381562 220.670675 
L 165.787583 220.956988 
L 165.990594 220.859499 
L 166.193604 220.58108 
L 166.599625 219.4548 
L 167.005647 217.585039 
L 167.614678 213.626727 
L 169.441774 200.519366 
L 169.847795 198.880436 
L 170.253816 198.024367 
L 170.456827 197.891812 
L 170.659837 197.945643 
L 171.065859 198.547884 
L 171.67489 200.326078 
L 172.689943 203.527142 
L 173.095965 204.141592 
L 173.298975 204.202486 
L 173.501986 204.077337 
L 173.908007 203.236434 
L 174.314028 201.612775 
L 174.92306 197.923716 
L 176.750155 184.933502 
L 177.156176 183.297667 
L 177.562198 182.504128 
L 177.765208 182.435136 
L 177.968219 182.578513 
L 178.37424 183.446954 
L 178.983272 185.851794 
L 180.201335 191.239959 
L 180.607357 192.118784 
L 180.810367 192.24683 
L 181.013378 192.141171 
L 181.216388 191.78993 
L 181.62241 190.337 
L 182.028431 187.930273 
L 182.637463 182.887824 
L 184.261547 168.201575 
L 184.667569 166.067729 
L 185.07359 165.057448 
L 185.2766 165.004259 
L 185.479611 165.252781 
L 185.885632 166.606276 
L 186.291653 168.939366 
L 188.118749 181.763137 
L 188.321759 182.310427 
L 188.52477 182.491867 
L 188.72778 182.270499 
L 188.930791 181.617501 
L 189.336812 178.947249 
L 189.742833 174.442696 
L 190.351865 164.572589 
L 191.366918 143.001033 
L 192.381971 122.871266 
L 192.991003 115.575226 
L 193.397024 113.759546 
L 193.600035 113.885295 
L 193.803045 114.727219 
L 194.209067 118.568647 
L 194.615088 125.179565 
L 195.22412 139.598982 
L 196.300034 173.109182 
L 197.457236 207.863692 
L 198.066268 220.635222 
L 198.472289 226.049674 
L 198.87831 228.769444 
L 199.081321 229.117158 
L 199.284331 228.81101 
L 199.487342 227.879456 
L 199.893363 224.299652 
L 200.502395 215.433467 
L 201.720459 191.634382 
L 202.735512 173.999753 
L 203.344543 166.987353 
L 203.750565 164.104113 
L 204.156586 162.61018 
L 204.359596 162.338367 
L 204.562607 162.347563 
L 204.765618 162.605284 
L 205.171639 163.719999 
L 205.983681 167.234243 
L 206.795724 170.429495 
L 207.201745 171.300462 
L 207.404755 171.48695 
L 207.607766 171.494542 
L 207.810777 171.319671 
L 208.216798 170.431618 
L 208.622819 168.88346 
L 209.231851 165.596172 
L 211.261957 153.318192 
L 211.870988 151.133119 
L 212.27701 150.253507 
L 212.683031 149.792957 
L 213.089052 149.67186 
L 213.495073 149.784154 
L 214.713137 150.334106 
L 215.119158 150.237195 
L 215.525179 149.881209 
L 215.9312 149.240875 
L 216.540232 147.769964 
L 217.352275 145.094716 
L 219.38238 138.011462 
L 221.818508 130.609279 
L 222.63055 126.684585 
L 223.442592 121.517623 
L 226.08173 103.167196 
L 226.487751 101.624253 
L 226.893773 100.74524 
L 227.096783 100.571527 
L 227.299794 100.578856 
L 227.502804 100.766735 
L 227.908826 101.668572 
L 228.314847 103.219555 
L 228.923879 106.543143 
L 230.344953 116.413255 
L 231.156995 121.365419 
L 231.766027 123.979516 
L 232.172048 125.078486 
L 232.578069 125.649973 
L 232.98409 125.725754 
L 233.390112 125.370455 
L 233.999143 124.231823 
L 236.029249 119.579547 
L 236.435271 119.147996 
L 236.841292 118.977921 
L 237.247313 119.055758 
L 237.653334 119.343627 
L 238.465377 120.308931 
L 239.48043 121.50202 
L 240.089461 121.818882 
L 240.495482 121.775903 
L 240.901504 121.51296 
L 241.510535 120.727311 
L 242.322578 119.110686 
L 246.991822 108.050618 
L 247.803864 105.010502 
L 248.818917 100.143864 
L 250.646012 90.973266 
L 251.255044 88.93893 
L 251.661065 88.118907 
L 252.067086 87.788933 
L 252.270097 87.815336 
L 252.676118 88.248802 
L 253.082139 89.162907 
L 253.691171 91.294951 
L 254.706224 96.01454 
L 255.721277 100.439318 
L 256.330309 102.148874 
L 256.73633 102.71396 
L 256.939341 102.80804 
L 257.142351 102.774827 
L 257.548373 102.336274 
L 257.954394 101.441848 
L 258.563426 99.428371 
L 260.390521 92.648191 
L 260.796542 91.904571 
L 261.203449 91.694421 
L 261.405574 91.810909 
L 261.811595 92.511113 
L 262.217616 93.835876 
L 262.826648 96.913955 
L 263.63869 102.612352 
L 265.871807 119.694082 
L 266.480839 122.819015 
L 267.089871 124.896694 
L 267.495892 125.724801 
L 267.901913 126.168801 
L 268.307934 126.30832 
L 268.916966 126.158158 
L 269.932019 125.798129 
L 270.33804 125.878239 
L 270.744061 126.182337 
L 271.150083 126.741656 
L 271.759114 128.063298 
L 272.571157 130.563163 
L 274.601263 137.311481 
L 275.210294 138.578043 
L 275.819326 139.294964 
L 276.225347 139.484985 
L 276.631369 139.484234 
L 277.2404 139.238163 
L 278.458464 138.616599 
L 279.067496 138.610938 
L 279.473517 138.800003 
L 280.082549 139.38638 
L 280.894591 140.623256 
L 282.518676 143.282065 
L 283.127708 143.82406 
L 283.533729 143.96009 
L 283.93975 143.913864 
L 284.548782 143.551944 
L 286.375877 142.045146 
L 286.781898 142.064857 
L 287.18792 142.350433 
L 287.593941 142.940679 
L 288.202973 144.431003 
L 288.812004 146.60769 
L 289.827057 151.318512 
L 291.248132 158.108172 
L 292.060174 160.904043 
L 292.669206 162.175527 
L 293.075227 162.618908 
L 293.481248 162.771397 
L 293.887269 162.685902 
L 294.496301 162.269457 
L 295.511354 161.517698 
L 295.917375 161.441531 
L 296.323396 161.596102 
L 296.729418 162.024379 
L 297.135439 162.745932 
L 297.744471 164.359678 
L 298.556513 167.290243 
L 300.383608 174.270628 
L 300.99264 175.796938 
L 301.601672 176.665208 
L 302.007693 176.88235 
L 302.413714 176.84961 
L 303.022746 176.466372 
L 304.24081 175.53317 
L 304.646831 175.499333 
L 305.052852 175.731236 
L 305.458873 176.278088 
L 305.864894 177.164041 
L 306.473926 179.113692 
L 307.285969 182.640976 
L 309.113064 191.129804 
L 309.722096 193.007506 
L 310.128117 193.808631 
L 310.534138 194.236303 
L 310.940159 194.316208 
L 311.346181 194.106187 
L 311.955212 193.443932 
L 312.767255 192.530447 
L 313.173276 192.354331 
L 313.579297 192.53359 
L 313.985318 193.174646 
L 314.39134 194.357521 
L 315.000371 197.239568 
L 315.609403 201.43195 
L 316.421445 208.680691 
L 318.654562 229.91329 
L 319.263594 233.640185 
L 319.669615 235.273982 
L 320.075636 236.195243 
L 320.278647 236.393764 
L 320.481657 236.425646 
L 320.684668 236.300159 
L 321.090689 235.625767 
L 321.699721 233.78943 
L 323.526816 227.177747 
L 323.932838 226.426059 
L 324.338859 226.158007 
L 324.541869 226.217909 
L 324.947891 226.727333 
L 325.353912 227.727475 
L 325.962944 229.985448 
L 327.993049 238.750597 
L 328.399071 239.61696 
L 328.805092 239.898946 
L 329.008102 239.798767 
L 329.414124 239.093368 
L 329.820145 237.714263 
L 330.429177 234.469958 
L 331.241219 228.418233 
L 333.474336 210.074923 
L 334.083367 206.696891 
L 334.692399 204.479162 
L 335.09842 203.637218 
L 335.504442 203.251657 
L 335.910463 203.246943 
L 336.316484 203.527963 
L 337.128526 204.516768 
L 337.940569 205.37322 
L 338.34659 205.534399 
L 338.752611 205.442377 
L 339.158632 205.072459 
L 339.564653 204.426297 
L 340.173685 203.002864 
L 341.391749 199.248682 
L 342.406802 196.385681 
L 343.015834 195.239625 
L 343.421855 194.790159 
L 343.827876 194.60039 
L 344.233897 194.65423 
L 344.639918 194.917126 
L 345.24895 195.59174 
L 346.670024 197.366764 
L 347.279056 197.73055 
L 347.685077 197.739659 
L 348.091098 197.547359 
L 348.70013 196.903462 
L 349.512173 195.555252 
L 350.933247 193.098601 
L 351.542279 192.556478 
L 351.9483 192.496849 
L 352.354321 192.715986 
L 352.760342 193.228239 
L 353.369374 194.536474 
L 353.978406 196.418477 
L 354.993459 200.400566 
L 356.414533 206.042487 
L 357.023565 207.846742 
L 357.632597 209.006803 
L 358.038618 209.358554 
L 358.444639 209.34632 
L 358.85066 208.96192 
L 359.256681 208.210285 
L 359.865713 206.435982 
L 360.677755 203.044038 
L 361.895819 196.577847 
L 363.519904 187.893263 
L 364.331946 184.465535 
L 365.143989 181.94947 
L 365.75302 180.655408 
L 366.362052 179.784026 
L 367.174095 179.049545 
L 368.595169 177.889172 
L 369.2042 177.092841 
L 370.016243 175.599256 
L 371.031296 173.158502 
L 372.655381 169.163336 
L 373.467423 167.76689 
L 374.076455 167.121132 
L 374.685487 166.797979 
L 375.497529 166.712893 
L 376.715593 166.659417 
L 377.324624 166.360713 
L 377.933656 165.749564 
L 378.542688 164.795823 
L 379.35473 163.047918 
L 380.775804 159.266039 
L 382.399889 155.095449 
L 388.490207 141.215652 
L 391.332355 135.234066 
L 392.550419 131.789624 
L 394.986546 124.641529 
L 396.813642 119.804595 
L 397.625684 116.694688 
L 398.437726 112.341008 
L 399.452779 105.122692 
L 401.279875 91.393065 
L 401.889872 88.447503 
L 402.294928 87.319808 
L 402.700949 86.917934 
L 402.903959 86.990627 
L 403.309981 87.650661 
L 403.716002 88.91029 
L 404.528044 92.583025 
L 405.543097 97.145688 
L 405.949118 98.259094 
L 406.35514 98.698725 
L 406.55815 98.629565 
L 406.761161 98.356294 
L 407.167182 97.188659 
L 407.573203 95.221546 
L 408.182235 90.988868 
L 409.400299 80.113221 
L 410.415352 72.043977 
L 411.024383 68.920612 
L 411.430405 67.769408 
L 411.816565 67.395125 
L 412.039436 67.491574 
L 412.445457 68.21736 
L 412.851479 69.578001 
L 413.46051 72.560046 
L 414.678574 80.257366 
L 415.693627 86.277258 
L 416.302659 88.871619 
L 416.70868 89.971421 
L 417.114701 90.481305 
L 417.317712 90.499272 
L 417.520722 90.354519 
L 417.926744 89.575784 
L 418.332765 88.168099 
L 418.941797 85.035787 
L 421.174913 71.474848 
L 421.580934 70.460636 
L 421.783945 70.278002 
L 422.095461 70.448759 
L 422.392977 71.131014 
L 422.798998 72.855281 
L 423.40803 76.93003 
L 424.423083 86.024579 
L 425.438136 94.720953 
L 426.047167 98.501841 
L 426.656199 100.938998 
L 427.06222 101.910474 
L 427.671252 102.719122 
L 428.686305 103.685514 
L 429.295337 104.731584 
L 429.904369 106.298407 
L 431.934475 112.178729 
L 432.543507 113.10045 
L 433.152538 113.594414 
L 434.370602 114.393036 
L 434.979634 115.195839 
L 435.791676 116.773339 
L 437.00974 119.211757 
L 437.618771 119.978866 
L 438.227803 120.384705 
L 439.648877 121.03996 
L 440.257909 121.708098 
L 441.069952 123.013966 
L 442.085005 124.612606 
L 442.694036 125.188056 
L 443.303068 125.446308 
L 444.521132 125.817117 
L 445.130163 126.362492 
L 445.942206 127.508648 
L 446.957259 128.880854 
L 447.566291 129.301411 
L 448.175322 129.428684 
L 448.987365 129.55288 
L 449.596397 129.943237 
L 450.205428 130.670108 
L 451.423492 132.287181 
L 452.032524 132.662961 
L 452.641556 132.71916 
L 453.453598 132.787944 
L 453.859619 133.025509 
L 454.468651 133.712409 
L 455.686714 135.319572 
L 456.092736 135.565769 
L 456.701767 135.602646 
L 457.51381 135.573621 
L 457.919831 135.796336 
L 458.528863 136.534315 
L 459.543916 137.990636 
L 459.949937 138.259122 
L 460.355958 138.284437 
L 461.371011 138.138032 
L 461.777032 138.427859 
L 462.386064 139.365224 
L 463.198107 140.666206 
L 463.604128 140.902286 
L 464.010149 140.817258 
L 464.619181 140.531001 
L 465.025202 140.642689 
L 465.431223 141.191128 
L 466.649287 143.575866 
L 466.852297 143.655625 
L 467.258318 143.429071 
L 467.86735 142.850224 
L 468.070361 142.859629 
L 468.273371 143.06065 
L 468.679393 144.064645 
L 469.491435 146.734758 
L 469.694446 146.952566 
L 469.897456 146.834176 
L 470.303477 145.663345 
L 470.912509 143.473232 
L 471.11552 143.401022 
L 471.31853 143.955316 
L 471.724552 147.169082 
L 472.942615 160.726092 
L 473.145626 160.803963 
L 473.348636 160.000951 
L 474.363689 152.424333 
L 474.5667 152.155669 
L 474.769711 152.469216 
L 475.378742 154.46842 
L 475.581753 154.647759 
L 475.784764 154.422606 
L 476.393795 153.219568 
L 476.596806 153.45964 
L 477.002827 155.126158 
L 477.408848 156.51546 
L 477.611859 156.532029 
L 477.814869 156.310506 
L 478.01788 156.415495 
L 478.220891 157.49237 
L 478.626912 163.168558 
L 479.032933 167.649256 
L 479.235944 166.521672 
L 479.641965 160.546939 
L 479.844975 159.364848 
L 480.047986 159.428685 
L 480.454007 157.860162 
L 480.657018 158.213068 
L 480.860028 162.879269 
L 480.860028 162.879269 
" clip-path="url(#p3d4a9df1c2)" style="fill: none; stroke: #000000; stroke-width: 1.5; stroke-linecap: square"/>
   </g>
   <g id="patch_3">
    <path d="M 54.750938 300.591563 
L 54.750938 23.391562 
" style="fill: none; stroke: #000000; stroke-width: 0.8; stroke-linejoin: miter; stroke-linecap: square"/>
   </g>
   <g id="patch_4">
    <path d="M 501.150937 300.591563 
L 501.150937 23.391562 
" style="fill: none; stroke: #000000; stroke-width: 0.8; stroke-linejoin: miter; stroke-linecap: square"/>
   </g>
   <g id="patch_5">
    <path d="M 54.750938 300.591563 
L 501.150937 300.591563 
" style="fill: none; stroke: #000000; stroke-width: 0.8; stroke-linejoin: miter; stroke-linecap: square"/>
   </g>
   <g id="patch_6">
    <path d="M 54.750938 23.391562 
L 501.150937 23.391562 
" style="fill: none; stroke: #000000; stroke-width: 0.8; stroke-linejoin: miter; stroke-linecap: square"/>
   </g>
   <g id="text_17">
    <text style="font-size: 14px; font-family: 'Arial', sans-serif; text-anchor: middle" x="277.950938" y="17.391562" transform="rotate(-0 277.950938 17.391562)">Legendre Polynomial Fit (P=150)</text>
   </g>
   <g id="legend_1">
    <g id="PathCollection_3">
     <g>
      <use xlink:href="#m74ca492c73" x="77.550938" y="39.630937" style="fill: #1f77b4; stroke: #1f77b4"/>
     </g>
    </g>
    <g id="text_18">
     <text style="font-size: 12px; font-family: 'Arial', sans-serif; text-anchor: start" x="99.150937" y="42.780937" transform="rotate(-0 99.150937 42.780937)">Train data</text>
    </g>
    <g id="PathCollection_4">
     <g>
      <use xlink:href="#m7491e7cac5" x="77.550938" y="56.605312" style="fill: #d62728; stroke: #d62728"/>
     </g>
    </g>
    <g id="text_19">
     <text style="font-size: 12px; font-family: 'Arial', sans-serif; text-anchor: start" x="99.150937" y="59.755312" transform="rotate(-0 99.150937 59.755312)">Test data</text>
    </g>
    <g id="line2d_16">
     <path d="M 65.550938 72.675937 
L 77.550938 72.675937 
L 89.550938 72.675937 
" style="fill: none; stroke: #000000; stroke-width: 1.5; stroke-linecap: square"/>
    </g>
    <g id="text_20">
     <text style="font-size: 12px; font-family: 'Arial', sans-serif; text-anchor: start" x="99.150937" y="76.875937" transform="rotate(-0 99.150937 76.875937)">Legendre Fit (P=150)</text>
    </g>
   </g>
  </g>
 </g>
 <defs>
  <clipPath id="p3d4a9df1c2">
   <rect x="54.750938" y="23.391562" width="446.4" height="277.2"/>
  </clipPath>
 </defs>
</svg>
